<svg width="32" height="32" viewBox="0 0 32 32" fill="none" xmlns="http://www.w3.org/2000/svg">
<path d="M15.76 5.35467L16 5.33333C16.3121 5.33323 16.6143 5.44259 16.854 5.64237C17.0938 5.84215 17.2558 6.11969 17.312 6.42667L17.3333 6.66667V14.6667H25.3333C25.6454 14.6666 25.9476 14.7759 26.1874 14.9757C26.4271 15.1755 26.5892 15.453 26.6453 15.76L26.6667 16C26.6668 16.3121 26.5574 16.6143 26.3576 16.854C26.1579 17.0938 25.8803 17.2558 25.5733 17.312L25.3333 17.3333H17.3333V25.3333C17.3334 25.6454 17.2241 25.9476 17.0243 26.1874C16.8245 26.4271 16.547 26.5892 16.24 26.6453L16 26.6667C15.6879 26.6668 15.3857 26.5574 15.146 26.3576C14.9062 26.1578 14.7442 25.8803 14.688 25.5733L14.6667 25.3333V17.3333H6.66668C6.35461 17.3334 6.05239 17.2241 5.81265 17.0243C5.57292 16.8245 5.41085 16.547 5.35468 16.24L5.33334 16C5.33324 15.6879 5.4426 15.3857 5.64238 15.146C5.84216 14.9062 6.11971 14.7442 6.42668 14.688L6.66668 14.6667H14.6667V6.66667C14.6666 6.3546 14.7759 6.05238 14.9757 5.81264C15.1755 5.5729 15.453 5.41084 15.76 5.35467Z" fill="black"/>
</svg>
