<svg width="32" height="32" viewBox="0 0 32 32" fill="none" xmlns="http://www.w3.org/2000/svg">
<path d="M25 5.33333C26.1068 5.33326 27.1718 5.75674 27.9763 6.5169C28.7808 7.27705 29.264 8.31626 29.3267 9.42133L29.3333 9.66667V22.3333C29.3334 23.4402 28.9099 24.5051 28.1498 25.3096C27.3896 26.1142 26.3504 26.5973 25.2453 26.66L25 26.6667H13.6653C12.6491 26.667 11.6651 26.3102 10.8853 25.6587L10.6787 25.4733L4.01866 19.14C3.18605 18.3481 2.70202 17.258 2.67301 16.1094C2.64401 14.9607 3.0724 13.8475 3.86399 13.0147L4.01866 12.86L10.6787 6.52667C11.415 5.82657 12.374 5.40749 13.388 5.34267L13.6667 5.33333H25.0013H25ZM25 7.33333H13.6653C13.1434 7.33295 12.6363 7.50759 12.2253 7.82933L12.0573 7.976L5.39599 14.3093L5.31333 14.392C4.91377 14.8123 4.68504 15.3663 4.67173 15.9461C4.65842 16.5259 4.86148 17.0898 5.24133 17.528L5.39599 17.6907L12.0573 24.024C12.4373 24.384 12.924 24.6067 13.4427 24.656L13.6653 24.6667H25C25.5858 24.6666 26.1501 24.4462 26.5809 24.0493C27.0117 23.6523 27.2775 23.1078 27.3253 22.524L27.3333 22.3333V9.66667C27.3333 9.08087 27.1129 8.51652 26.7159 8.08572C26.319 7.65493 25.7745 7.3892 25.1907 7.34133L25 7.33333ZM15.2613 11.196L15.3733 11.2933L18.6667 14.5853L21.96 11.292C22.1384 11.1131 22.378 11.0083 22.6305 10.9988C22.883 10.9893 23.1297 11.0758 23.3211 11.2408C23.5125 11.4058 23.6343 11.6372 23.662 11.8883C23.6898 12.1395 23.6214 12.3919 23.4707 12.5947L23.3733 12.7067L20.0813 16L23.3747 19.2933C23.5536 19.4718 23.6583 19.7113 23.6678 19.9638C23.6773 20.2163 23.5909 20.4631 23.4258 20.6545C23.2608 20.8458 23.0295 20.9676 22.7783 20.9954C22.5272 21.0231 22.2748 20.9547 22.072 20.804L21.96 20.7067L18.6667 17.4147L15.3733 20.708C15.1949 20.8869 14.9553 20.9917 14.7028 21.0012C14.4503 21.0107 14.2036 20.9242 14.0122 20.7592C13.8208 20.5942 13.699 20.3628 13.6713 20.1117C13.6436 19.8605 13.7119 19.6081 13.8627 19.4053L13.96 19.2933L17.2533 16L13.96 12.7067C13.7827 12.528 13.6793 12.2891 13.6705 12.0375C13.6616 11.786 13.7479 11.5404 13.9122 11.3497C14.0765 11.159 14.3066 11.0372 14.5567 11.0088C14.8068 10.9803 15.0584 11.0471 15.2613 11.196V11.196Z" fill="black"/>
</svg>
