<svg width="32" height="32" viewBox="0 0 32 32" fill="none" xmlns="http://www.w3.org/2000/svg">
<path d="M6.66666 14.6667H25.3333V17.3333H6.66666V14.6667ZM16.0027 5.33334C15.2954 5.33263 14.6169 5.6129 14.1163 6.1125C13.6157 6.6121 13.334 7.29009 13.3333 7.99734C13.3326 8.70458 13.6129 9.38314 14.1125 9.88374C14.6121 10.3843 15.2901 10.666 15.9973 10.6667C16.7046 10.6674 17.3831 10.3871 17.8837 9.88751C18.3843 9.38791 18.6659 8.70991 18.6667 8.00267C18.6674 7.29543 18.3871 6.61687 17.8875 6.11627C17.3879 5.61567 16.7099 5.33404 16.0027 5.33334V5.33334ZM16.0027 21.3333C15.2954 21.3326 14.6169 21.6129 14.1163 22.1125C13.6157 22.6121 13.334 23.2901 13.3333 23.9973C13.3326 24.7046 13.6129 25.3831 14.1125 25.8837C14.6121 26.3843 15.2901 26.666 15.9973 26.6667C16.7046 26.6674 17.3831 26.3871 17.8837 25.8875C18.3843 25.3879 18.6659 24.7099 18.6667 24.0027C18.6674 23.2954 18.3871 22.6169 17.8875 22.1163C17.3879 21.6157 16.7099 21.334 16.0027 21.3333V21.3333Z" fill="black"/>
</svg>
