<svg width="32" height="32" viewBox="0 0 32 32" fill="none" xmlns="http://www.w3.org/2000/svg">
<path d="M28.5 20C28.5 20.3978 28.342 20.7794 28.0607 21.0607C27.7794 21.342 27.3978 21.5 27 21.5H5C4.60218 21.5 4.22064 21.342 3.93934 21.0607C3.65804 20.7794 3.5 20.3978 3.5 20C3.5 19.6022 3.65804 19.2206 3.93934 18.9393C4.22064 18.658 4.60218 18.5 5 18.5H27C27.3978 18.5 27.7794 18.658 28.0607 18.9393C28.342 19.2206 28.5 19.6022 28.5 20ZM5 13.5H27C27.3978 13.5 27.7794 13.342 28.0607 13.0607C28.342 12.7794 28.5 12.3978 28.5 12C28.5 11.6022 28.342 11.2206 28.0607 10.9393C27.7794 10.658 27.3978 10.5 27 10.5H5C4.60218 10.5 4.22064 10.658 3.93934 10.9393C3.65804 11.2206 3.5 11.6022 3.5 12C3.5 12.3978 3.65804 12.7794 3.93934 13.0607C4.22064 13.342 4.60218 13.5 5 13.5V13.5Z" fill="black"/>
</svg>
