<svg width="32" height="32" viewBox="0 0 32 32" fill="none" xmlns="http://www.w3.org/2000/svg">
<path fill-rule="evenodd" clip-rule="evenodd" d="M7.44002 7.44C7.72127 7.1591 8.10252 7.00132 8.50002 7.00132C8.89752 7.00132 9.27877 7.1591 9.56002 7.44L16 13.88L22.44 7.44C22.5773 7.29263 22.7429 7.17442 22.9269 7.09244C23.1109 7.01046 23.3096 6.96637 23.511 6.96282C23.7124 6.95927 23.9124 6.99631 24.0992 7.07176C24.286 7.1472 24.4557 7.25949 24.5981 7.40193C24.7405 7.54436 24.8528 7.71403 24.9283 7.90081C25.0037 8.08758 25.0408 8.28764 25.0372 8.48905C25.0337 8.69045 24.9896 8.88908 24.9076 9.07308C24.8256 9.25708 24.7074 9.42268 24.56 9.56L18.12 16L24.56 22.44C24.7074 22.5773 24.8256 22.7429 24.9076 22.9269C24.9896 23.1109 25.0337 23.3096 25.0372 23.511C25.0408 23.7124 25.0037 23.9124 24.9283 24.0992C24.8528 24.286 24.7405 24.4556 24.5981 24.5981C24.4557 24.7405 24.286 24.8528 24.0992 24.9282C23.9124 25.0037 23.7124 25.0407 23.511 25.0372C23.3096 25.0336 23.1109 24.9895 22.9269 24.9076C22.7429 24.8256 22.5773 24.7074 22.44 24.56L16 18.12L9.56002 24.56C9.27567 24.825 8.89958 24.9692 8.51098 24.9624C8.12238 24.9555 7.75161 24.7981 7.47678 24.5232C7.20195 24.2484 7.04453 23.8776 7.03767 23.489C7.03082 23.1004 7.17506 22.7244 7.44002 22.44L13.88 16L7.44002 9.56C7.15912 9.27875 7.00134 8.8975 7.00134 8.5C7.00134 8.1025 7.15912 7.72125 7.44002 7.44V7.44Z" fill="black"/>
</svg>
