<svg width="32" height="32" viewBox="0 0 32 32" fill="none" xmlns="http://www.w3.org/2000/svg">
<path d="M14.6667 10.664H10.6667V14.664C10.6667 15.0176 10.5262 15.3568 10.2762 15.6068C10.0261 15.8569 9.68698 15.9973 9.33335 15.9973C8.97973 15.9973 8.64059 15.8569 8.39055 15.6068C8.1405 15.3568 8.00002 15.0176 8.00002 14.664V10.664H4.00002C3.6464 10.664 3.30726 10.5235 3.05721 10.2735C2.80716 10.0234 2.66669 9.68429 2.66669 9.33067C2.66669 8.97705 2.80716 8.63791 3.05721 8.38786C3.30726 8.13781 3.6464 7.99733 4.00002 7.99733H8.00002V3.99733C8.00002 3.64371 8.1405 3.30457 8.39055 3.05453C8.64059 2.80448 8.97973 2.664 9.33335 2.664C9.68698 2.664 10.0261 2.80448 10.2762 3.05453C10.5262 3.30457 10.6667 3.64371 10.6667 3.99733V7.99733H14.6667C15.0203 7.99733 15.3594 8.13781 15.6095 8.38786C15.8595 8.63791 16 8.97705 16 9.33067C16 9.68429 15.8595 10.0234 15.6095 10.2735C15.3594 10.5235 15.0203 10.664 14.6667 10.664V10.664ZM28 23.9973H20C19.6464 23.9973 19.3073 23.8569 19.0572 23.6068C18.8072 23.3568 18.6667 23.0176 18.6667 22.664C18.6667 22.3104 18.8072 21.9712 19.0572 21.7212C19.3073 21.4711 19.6464 21.3307 20 21.3307H28C28.3536 21.3307 28.6928 21.4711 28.9428 21.7212C29.1929 21.9712 29.3334 22.3104 29.3334 22.664C29.3334 23.0176 29.1929 23.3568 28.9428 23.6068C28.6928 23.8569 28.3536 23.9973 28 23.9973ZM23.724 6.276L6.27602 23.724C6.02606 23.974 5.88564 24.3131 5.88564 24.6667C5.88564 25.0202 6.02606 25.3593 6.27602 25.6093L6.39069 25.724C6.64072 25.974 6.9798 26.1144 7.33335 26.1144C7.68691 26.1144 8.02598 25.974 8.27602 25.724L25.724 8.276C25.974 8.02596 26.1144 7.68689 26.1144 7.33333C26.1144 6.97978 25.974 6.6407 25.724 6.39067L25.6094 6.276C25.3593 6.02604 25.0202 5.88562 24.6667 5.88562C24.3131 5.88562 23.9741 6.02604 23.724 6.276Z" fill="black"/>
</svg>
