<svg width="32" height="32" viewBox="0 0 32 32" fill="none" xmlns="http://www.w3.org/2000/svg">
<path d="M24.9427 7.05733C25.1926 7.30737 25.333 7.64645 25.333 8C25.333 8.35355 25.1926 8.69263 24.9427 8.94266L8.94266 24.9427C8.69119 25.1855 8.35438 25.3199 8.00479 25.3169C7.65519 25.3139 7.32078 25.1736 7.07357 24.9264C6.82635 24.6792 6.68613 24.3448 6.68309 23.9952C6.68005 23.6456 6.81445 23.3088 7.05732 23.0573L23.0573 7.05733C23.3074 6.80737 23.6464 6.66695 24 6.66695C24.3535 6.66695 24.6926 6.80737 24.9427 7.05733V7.05733ZM22.6667 25.3333C23.3739 25.3333 24.0522 25.0524 24.5523 24.5523C25.0524 24.0522 25.3333 23.3739 25.3333 22.6667C25.3333 21.9594 25.0524 21.2811 24.5523 20.781C24.0522 20.2809 23.3739 20 22.6667 20C21.9594 20 21.2811 20.2809 20.781 20.781C20.2809 21.2811 20 21.9594 20 22.6667C20 23.3739 20.2809 24.0522 20.781 24.5523C21.2811 25.0524 21.9594 25.3333 22.6667 25.3333V25.3333ZM9.33332 12C10.0406 12 10.7188 11.719 11.2189 11.2189C11.719 10.7189 12 10.0406 12 9.33333C12 8.62609 11.719 7.94781 11.2189 7.44771C10.7188 6.94762 10.0406 6.66666 9.33332 6.66666C8.62608 6.66666 7.9478 6.94762 7.4477 7.44771C6.94761 7.94781 6.66666 8.62609 6.66666 9.33333C6.66666 10.0406 6.94761 10.7189 7.4477 11.2189C7.9478 11.719 8.62608 12 9.33332 12V12Z" fill="black"/>
</svg>
